<svg fill="none" height="249" viewBox="0 0 281 249" width="281" xmlns="http://www.w3.org/2000/svg"><path d="m16.2227 191.359h248.3383" stroke="#211d3d" stroke-linecap="round" stroke-linejoin="round" stroke-miterlimit="10" stroke-width="2.5"/><path d="m1.89844 191.359h7.95957" stroke="#211d3d" stroke-linecap="round" stroke-linejoin="round" stroke-miterlimit="10" stroke-width="2.5"/><path d="m270.934 191.359h7.959" stroke="#211d3d" stroke-linecap="round" stroke-linejoin="round" stroke-miterlimit="10" stroke-width="2.5"/><path d="m158.219 68.1303c.636.9552.636 2.5471 0 3.5022-.637 1.2736-1.911 1.9103-3.184 1.9103h-32.475c-1.274 0-2.547-.6367-3.184-1.9103-.637-1.2735-.637-2.547 0-3.5022l11.143-17.511c.637-.9552 1.911-1.592 2.866-1.592h10.188c1.274 0 2.229.6368 2.866 1.592z" fill="#fffacf"/><path d="m138.802 59.534c6.049 0 11.78 1.2735 15.919 3.5022l-7.959-12.4169c-.637-.9552-1.911-1.592-2.866-1.592h-10.188c-1.274 0-2.229.6368-2.866 1.592l-7.959 12.4169c4.457-2.2287 9.87-3.5022 15.919-3.5022z" fill="#fffef2"/><path d="m241.636 237.837c.636 2.228 2.865 3.502 5.094 2.865 2.228-.637 3.502-2.865 3.183-5.094l-6.367-33.749-11.78 2.866z" fill="#c0dceb"/><path d="m246.73 218.736-3.184-16.556-11.78 2.865 4.139 13.691z" fill="#adc4d9"/><path d="m241.636 237.837c.636 2.228 2.865 3.502 5.094 2.865 2.228-.637 3.502-2.865 3.183-5.094l-6.367-33.749-11.78 2.866z" stroke="#211d3d" stroke-linecap="round" stroke-linejoin="round" stroke-miterlimit="10" stroke-width="2.5"/><path d="m205.983 237.837c-.637 2.228-2.866 3.502-5.095 2.865-2.228-.637-3.502-2.865-3.183-5.094l6.367-33.749 11.78 2.866z" fill="#c0dceb"/><path d="m211.696 218.736 4.139-13.691-11.78-2.865-3.184 16.556z" fill="#adc4d9"/><path d="m205.983 237.837c-.637 2.228-2.866 3.502-5.095 2.865-2.228-.637-3.502-2.865-3.183-5.094l6.367-33.749 11.78 2.866z" stroke="#211d3d" stroke-linecap="round" stroke-linejoin="round" stroke-miterlimit="10" stroke-width="2.5"/><path d="m199.602 206.635h47.439c3.82 0 7.004-3.184 7.004-7.004v-65.587c0-7.641-6.368-14.009-14.009-14.009h-26.426c-7.641 0-14.008 6.368-14.008 14.009z" fill="#ff8a14"/><path d="m240.036 120.035h-26.426c-7.641 0-14.008 6.368-14.008 14.009v12.417c0-7.641 6.367-14.009 14.008-14.009h26.426c7.641 0 14.009 6.368 14.009 14.009v-12.417c0-7.96-6.368-14.009-14.009-14.009z" fill="#ffaa54"/><path d="m199.602 206.635h47.439c3.82 0 7.004-3.184 7.004-7.004v-65.587c0-7.641-6.368-14.009-14.009-14.009h-26.426c-7.641 0-14.008 6.368-14.008 14.009z" stroke="#211d3d" stroke-linecap="round" stroke-linejoin="round" stroke-miterlimit="10" stroke-width="2.5"/><path d="m177.316 206.637h69.726c3.821 0 7.005-3.183 7.005-7.004v-3.184h-76.731z" style="fill:#ff8a14;stroke:#211d3d;stroke-width:2.5;stroke-miterlimit:10;stroke-linecap:round;stroke-linejoin:round"/><path d="m191.334 147.094c0 9.552-7.641 17.193-17.193 17.193-9.233 0-17.193-6.368-19.103-15.282l-5.731-24.834c-.637-3.821 1.592-7.641 5.413-8.278 4.139-.955 7.641 1.91 8.278 5.412l6.049 24.516c.318 2.229 2.547 4.139 5.094 4.139 1.91 0 3.184-1.274 3.184-3.184 0-3.821 3.184-7.004 7.004-7.004 4.139.318 7.005 3.502 7.005 7.322z" style="fill:#ffcebf;stroke:#211d3d;stroke-width:2.5;stroke-miterlimit:10;stroke-linecap:round;stroke-linejoin:round"/><path d="m173.184 228.914 4.775-37.888c.637-6.049 6.05-10.506 12.099-10.506h27.699v16.237h-22.287l-7.959 32.157z" style="fill:#656769;stroke:#211d3d;stroke-width:2.5;stroke-miterlimit:10;stroke-linecap:round;stroke-linejoin:round"/><path d="m231.76 156.332c7.004-1.911 12.735-7.96 12.735-21.332 0-14.327-17.511-25.152-32.793-25.152-19.103 0-34.386 15.282-34.386 34.385v4.139l10.189 10.188v22.287h44.255z" fill="#4acfff"/><path d="m211.704 120.034c14.009 0 29.609 8.915 32.475 21.332.318-1.911.636-3.821.636-6.05 0-14.327-17.511-25.152-32.793-25.152-19.103 0-34.385 15.282-34.385 34.385v4.139l.636.637c2.229-16.874 16.238-29.291 33.431-29.291z" fill="#80ddff"/><path d="m231.76 156.332c7.004-1.911 12.735-7.96 12.735-21.332 0-14.327-17.511-25.152-32.793-25.152-19.103 0-34.386 15.282-34.386 34.385v4.139l10.189 10.188v22.287h44.255z" stroke="#211d3d" stroke-linecap="round" stroke-linejoin="round" stroke-miterlimit="10" stroke-width="2.5"/><path d="m231.764 138.172c0 2.547-3.82 4.457-6.049 4.776v14.327c2.229 0 4.139-.319 6.049-.955" stroke="#211d3d" stroke-linecap="round" stroke-linejoin="round" stroke-miterlimit="10" stroke-width="2.5"/><path d="m203.744 248.97c29.013 0 52.533-2.709 52.533-6.05s-23.52-6.049-52.533-6.049-52.533 2.708-52.533 6.049 23.52 6.05 52.533 6.05z" fill="#45413c" opacity=".15"/><path d="m159.172 241.013c0-6.686 5.412-12.099 12.098-12.099h16.238v12.099z" style="fill:#bf8256;stroke:#211d3d;stroke-width:2.5;stroke-miterlimit:10;stroke-linecap:round;stroke-linejoin:round"/><path d="m173.184 241.013c0-6.686 5.412-12.099 12.098-12.099h16.238v7.96c0 2.228-1.911 4.139-4.139 4.139z" style="fill:#bf8256;stroke:#211d3d;stroke-width:2.5;stroke-miterlimit:10;stroke-linecap:round;stroke-linejoin:round"/><path d="m219.664 110.789c-1.592-.319-2.547-1.911-2.547-3.503v-15.9188h-14.646v16.8738c0 1.592-.955 2.866-2.228 3.184-1.911.637-3.503 1.592-5.095 2.547l10.825 9.552 16.238-12.735c-.955.318-1.592 0-2.547 0z" style="fill:#ffcebf;stroke:#211d3d;stroke-width:2.5;stroke-miterlimit:10;stroke-linecap:round;stroke-linejoin:round"/><path d="m233.359 116.524-21.65 13.372-6.049-6.049 16.238-12.417" stroke="#211d3d" stroke-linecap="round" stroke-linejoin="round" stroke-miterlimit="10" stroke-width="2.5"/><path d="m194.823 114.297 10.825 9.551-3.502 3.503c-1.274 1.273-3.821 1.591-5.413.318l-9.87-7.323c2.229-2.229 4.776-4.457 7.96-6.049z" style="fill:#80ddff;stroke:#211d3d;stroke-width:2.5;stroke-miterlimit:10;stroke-linecap:round;stroke-linejoin:round"/><path d="m187.516 158.23v-20.058" stroke="#211d3d" stroke-linecap="round" stroke-linejoin="round" stroke-miterlimit="10" stroke-width="2.5"/><path d="m205.66 123.848v56.672" stroke="#211d3d" stroke-linecap="round" stroke-linejoin="round" stroke-miterlimit="10" stroke-width="2.5"/><path d="m207.56 48.0898c13.372 0 24.197 10.8251 24.197 24.1971v4.7758c7.005 0 6.368 12.0985-1.273 12.0985-3.184 9.8699-12.099 16.8748-22.924 16.8748-13.372 0-24.197-10.8255-24.197-24.1976v-9.5515c0-13.372 11.144-24.1971 24.197-24.1971z" style="fill:#ffcebf;stroke:#211d3d;stroke-width:2.5;stroke-miterlimit:10;stroke-linecap:round;stroke-linejoin:round"/><path d="m212.014 80.5629c1.582 0 2.865-1.2829 2.865-2.8654 0-1.5826-1.283-2.8655-2.865-2.8655-1.583 0-2.866 1.2829-2.866 2.8655 0 1.5825 1.283 2.8654 2.866 2.8654z" fill="#211d3d"/><path d="m190.688 77.6975c0 1.5919 1.273 2.8654 2.865 2.8654s2.865-1.2735 2.865-2.8654-1.273-2.8655-2.865-2.8655-2.865 1.2736-2.865 2.8655z" fill="#211d3d"/><path d="m214.875 87.2502c0 1.2735.955 2.5471 2.547 2.5471s2.547-.9552 2.547-2.5471c0-1.2735-.955-2.5471-2.547-2.5471s-2.547 1.2736-2.547 2.5471z" fill="#ffb59e"/><path d="m208.829 91.3945c-1.274.9552-6.368 4.7758-12.099 0" stroke="#211d3d" stroke-linecap="round" stroke-linejoin="round" stroke-miterlimit="10" stroke-width="2.5"/><path d="m224.754 79.607c0-5.4125-4.458-9.5515-9.552-9.5515h-31.52c-2.547 0-4.457-2.2287-3.82-4.7758 2.865-12.4169 12.735-22.2868 25.47-23.8787 18.467-2.2286 34.067 12.0986 34.067 29.928v35.341c0 2.547-2.547 4.457-5.094 3.82-6.049-1.592-8.596-5.731-9.551-11.4617z" style="fill:#ffc44d;stroke:#211d3d;stroke-width:2.5;stroke-miterlimit:10;stroke-linecap:round;stroke-linejoin:round"/><path d="m210.119 50.3097c-12.098 0-22.923 5.4125-30.564 14.0089 2.865-12.0986 12.735-21.9684 25.47-23.5604 14.964-1.9103 28.018 7.3228 32.475 20.3765-7.322-6.686-16.874-10.825-27.381-10.825z" fill="#ffdb94"/><g stroke="#211d3d" stroke-linejoin="round" stroke-miterlimit="10" stroke-width="2.5"><path d="m224.754 79.607c0-5.4125-4.458-9.5515-9.552-9.5515h-31.52c-2.547 0-4.457-2.2287-3.82-4.7758 2.865-12.4169 12.735-22.2868 25.47-23.8787 18.467-2.2286 34.067 12.0986 34.067 29.928v35.341c0 2.547-2.547 4.457-5.094 3.82-6.049-1.592-8.596-5.731-9.551-11.4617z"/><path d="m207.883 69.7234v-9.5515" stroke-linecap="round"/><path d="m217.43 70.0417v-9.8698" stroke-linecap="round"/><path d="m198.008 69.7234v-9.5515" stroke-linecap="round"/><path d="m188.461 69.7234v-9.5515" stroke-linecap="round"/><path d="m199.617 97.7422c0 5.7308-1.911 12.0988-10.189 12.0988-7.004 0-9.551-4.776-9.869-9.8701 0-.6368 0-1.2736.636-1.592.319-.3183.956-.6367 1.592-.6367z" fill="#daedf7" stroke-linecap="round"/><path d="m205.67 103.791c0-3.502-2.865-6.0488-6.049-6.0488" stroke-linecap="round"/><path d="m224.753 142.956c-2.866 0-5.094-2.228-5.094-5.094v-16.874c0-3.502-.955-7.005-2.866-9.87l-4.457-7.323c-1.274-2.229-3.502-3.502-6.049-3.502-1.274 0-2.547.318-3.503.955-3.183 1.91-4.457 6.368-2.547 9.552l4.458 7.322c.318.637.637 1.592.637 2.547v16.875c0 10.506 8.596 19.103 19.102 19.103h.956v-14.327c0 .636-.319.636-.637.636z" fill="#ffcebf" stroke-linecap="round"/><path d="m187.516 228.914 4.775-37.888c.637-6.049 6.05-10.506 12.099-10.506h27.699v7.959c0 4.457-3.502 7.96-7.959 7.96h-7.96c-3.821 0-7.004 2.547-7.959 6.049l-6.687 26.107z" fill="#656769" stroke-linecap="round"/></g><path d="m32.4592 237.837c-.6368 2.228-2.8655 3.502-5.0941 2.865-2.2287-.637-3.5023-2.865-3.1839-5.094l6.3677-33.749 11.7801 2.866z" fill="#c0dceb"/><path d="m38.1922 218.736 4.139-13.691-11.7802-2.865-3.1838 16.556z" fill="#adc4d9"/><path d="m32.4592 237.837c-.6368 2.228-2.8655 3.502-5.0941 2.865-2.2287-.637-3.5023-2.865-3.1839-5.094l6.3677-33.749 11.7801 2.866z" stroke="#211d3d" stroke-linecap="round" stroke-linejoin="round" stroke-miterlimit="10" stroke-width="2.5"/><path d="m68.116 237.837c.6367 2.228 2.8654 3.502 5.0941 2.865s3.5022-2.865 3.1838-5.094l-6.3676-33.749-11.7802 2.866z" fill="#c0dceb"/><path d="m73.2101 218.736-3.5022-16.556-11.4618 2.865 4.139 13.691z" fill="#adc4d9"/><path d="m68.116 237.837c.6367 2.228 2.8654 3.502 5.0941 2.865s3.5022-2.865 3.1838-5.094l-6.3676-33.749-11.7802 2.866z" stroke="#211d3d" stroke-linecap="round" stroke-linejoin="round" stroke-miterlimit="10" stroke-width="2.5"/><path d="m74.4825 206.635h-47.439c-3.8206 0-7.0044-3.184-7.0044-7.004v-65.587c0-7.641 6.3676-14.009 14.0088-14.009h26.4258c7.6412 0 14.0088 6.368 14.0088 14.009z" fill="#ff8a14"/><path d="m60.4737 120.035h-26.4258c-7.6412 0-14.0088 6.368-14.0088 14.009v12.417c0-7.641 6.3676-14.009 14.0088-14.009h26.4258c7.6412 0 14.0088 6.368 14.0088 14.009v-12.417c0-7.96-6.3676-14.009-14.0088-14.009z" fill="#ffaa54"/><path d="m74.4825 206.635h-47.439c-3.8206 0-7.0044-3.184-7.0044-7.004v-65.587c0-7.641 6.3676-14.009 14.0088-14.009h26.4258c7.6412 0 14.0088 6.368 14.0088 14.009z" stroke="#211d3d" stroke-linecap="round" stroke-linejoin="round" stroke-miterlimit="10" stroke-width="2.5"/><path d="m96.7693 206.637h-69.7258c-3.8206 0-7.0044-3.183-7.0044-7.004v-3.184h76.7302z" style="fill:#ff8a14;stroke:#211d3d;stroke-width:2.5;stroke-miterlimit:10;stroke-linecap:round;stroke-linejoin:round"/><path d="m124.788 158.241h-17.193c-1.592 0-3.184-1.274-3.184-3.184 0-.319 0-.637 0-.955h-14.0087v.955c0 9.551 7.6412 17.192 17.1927 17.192h17.193c3.82 0 7.004-3.183 7.004-7.004s-2.865-7.004-7.004-7.004z" style="fill:#d18660;stroke:#211d3d;stroke-width:2.5;stroke-miterlimit:10;stroke-linecap:round;stroke-linejoin:round"/><path d="m163.307 164.282h-54.444l6.05-36.295c0-2.229 1.91-4.139 4.139-4.139h50.304c2.229 0 4.139 1.91 4.139 4.139l-6.049 32.156c-.319 2.229-1.911 4.139-4.139 4.139z" fill="#c0dceb"/><path d="m170.635 129.897c.955 0 1.592.318 2.229.637l.318-2.547c0-2.229-1.91-4.139-4.139-4.139h-50.304c-2.229 0-4.139 1.91-4.139 4.139l-.319 1.91z" fill="#daedf7"/><path d="m163.307 164.282h-54.444l6.05-36.295c0-2.229 1.91-4.139 4.139-4.139h50.304c2.229 0 4.139 1.91 4.139 4.139l-6.049 32.156c-.319 2.229-1.911 4.139-4.139 4.139z" stroke="#211d3d" stroke-linecap="round" stroke-linejoin="round" stroke-miterlimit="10" stroke-width="2.5"/><path d="m114.925 228.924h-18.1474l-4.7757-25.789c-.6368-3.821-4.139-6.687-7.9596-6.687h-17.5111v-16.237h30.2464c6.0494 0 10.8254 4.139 12.0984 10.188z" style="fill:#00b8f0;stroke:#211d3d;stroke-width:2.5;stroke-miterlimit:10;stroke-linecap:round;stroke-linejoin:round"/><path d="m28 148.054c0-21.332 17.1927-38.206 38.2059-38.206 21.3317 0 38.2061 17.192 38.2061 38.206v6.049h-10.1884v26.107h-52.2148v-26.107h-14.0088z" fill="#e8f4fa"/><path d="m66.2059 109.848c-21.3316 0-38.2059 17.192-38.2059 38.206v6.049h.3184c1.9103-19.421 18.4662-34.385 38.2059-34.385 19.7398 0 35.9777 14.964 38.2057 34.385h.319v-6.049c-.319-21.014-17.5114-38.206-38.8431-38.206z" fill="#fff"/><path d="m28 148.054c0-21.332 17.1927-38.206 38.2059-38.206 21.3317 0 38.2061 17.192 38.2061 38.206v6.049h-10.1884v26.107h-52.2148v-26.107h-14.0088z" stroke="#211d3d" stroke-linecap="round" stroke-linejoin="round" stroke-miterlimit="10" stroke-width="2.5"/><path d="m74.4902 248.97c29.0128 0 52.5328-2.709 52.5328-6.05s-23.52-6.049-52.5328-6.049c-29.0133 0-52.5332 2.708-52.5332 6.049s23.5199 6.05 52.5332 6.05z" fill="#45413c" opacity=".15"/><g stroke="#211d3d" stroke-linecap="round" stroke-linejoin="round" stroke-miterlimit="10" stroke-width="2.5"><path d="m42.0039 154.099v-12.099"/><path d="m94.5391 154.099v-12.099"/><path d="m124.785 241.013c0-6.686-5.412-12.099-12.098-12.099h-16.2378v12.099z" fill="#947746"/><path d="m100.586 241.013c0-6.686-5.4124-12.099-12.0985-12.099h-16.2375v7.96c0 2.228 1.9103 4.139 4.139 4.139z" fill="#947746"/><path d="m163.313 172.243h-50.623c-2.229 0-4.139-1.911-4.139-4.139v-4.139h58.582v4.139c0 2.547-1.592 4.139-3.82 4.139z" fill="#c0dceb"/><path d="m141.034 152.188c3.341 0 6.049-2.708 6.049-6.049s-2.708-6.049-6.049-6.049-6.05 2.708-6.05 6.049 2.709 6.049 6.05 6.049z" fill="#ffe500"/><path d="m141.023 135.953 4.139-3.82"/><path d="m90.7145 228.914h-18.1478l-4.7758-25.789c-.6367-3.821-4.1389-6.686-7.9595-6.686h-9.5515c-4.4574 0-7.9596-3.503-7.9596-7.96v-7.959h30.2464c6.0493 0 10.825 4.139 12.0985 10.188z" fill="#00b8f0"/><path d="m203.745 177.34c0 2.866-2.228 5.094-5.094 5.094h-139.4514c-2.8654 0-5.0941-2.228-5.0941-5.094 0-2.865 2.2287-5.094 5.0941-5.094h139.1334c2.865 0 5.412 2.229 5.412 5.094z" fill="#b89558"/><path d="m80.5352 164.293c0 4.457 3.5022 7.96 7.9595 7.96h20.0583v-7.96z" fill="#c0dceb"/><path d="m77.3493 158.241h-32.1566c-1.5919 0-3.1839-1.274-3.1839-3.184 0-.955 0-.955 0-.955h-14.0088v.955c0 9.551 7.6412 17.192 17.1927 17.192h32.1566c3.8206 0 7.0045-3.183 7.0045-7.004.3183-3.821-2.8655-7.004-7.0045-7.004z" fill="#d18660"/><path d="m138.797 1.59375v38.52435"/><path d="m158.219 68.1303c.636.9552.636 2.5471 0 3.5022-.637 1.2736-1.911 1.9103-3.184 1.9103h-32.475c-1.274 0-2.547-.6367-3.184-1.9103-.637-1.2735-.637-2.547 0-3.5022l11.143-17.511c.637-.9552 1.911-1.592 2.866-1.592h10.188c1.274 0 2.229.6368 2.866 1.592z"/><path d="m144.206 49.0397h-10.507v-3.5022c0-2.8654 2.229-5.4125 5.413-5.4125 2.865 0 5.412 2.2287 5.412 5.4125v3.5022z" fill="#87898c"/></g><path d="m134.981 182.441h-12.098v58.583h12.098z" fill="#87898c"/><path d="m134.981 182.441h-12.098v7.96h12.098z" fill="#656769"/><path d="m134.981 182.441h-12.098v58.583h12.098z" stroke="#211d3d" stroke-linecap="round" stroke-linejoin="round" stroke-miterlimit="10" stroke-width="2.5"/><path d="m79.2635 112.068c-1.2735-.637-2.2286-1.911-2.2286-3.184v-12.0988h-17.5111v10.8248c0 1.592-.9551 2.866-2.5471 3.502-.9551.319-1.5919.319-2.547.637.9551 7.005 6.686 12.099 14.0088 12.099 6.6861 0 12.0986-4.458 13.6905-10.825-.9552-.319-1.9103-.637-2.8655-.955z" style="fill:#d18660;stroke:#211d3d;stroke-width:2.5;stroke-miterlimit:10;stroke-linecap:round;stroke-linejoin:round"/><path d="m68.4298 49.3555c-13.3721 0-24.1971 10.825-24.1971 24.1971v3.1838c-2.2287.6368-4.1389 2.5471-4.1389 4.7757 0 2.5471 1.9102 4.7758 4.4573 5.0942 2.2287 11.1434 12.0986 19.4217 23.8787 19.4217 13.3721 0 24.1971-10.8254 24.1971-24.1975v-7.9596c0-13.372-10.825-24.5154-24.1971-24.5154z" style="fill:#d18660;stroke:#211d3d;stroke-width:2.5;stroke-miterlimit:10;stroke-linecap:round;stroke-linejoin:round"/><path d="m65.2463 79.9184c1.7584 0 3.1839-1.4254 3.1839-3.1838s-1.4255-3.1838-3.1839-3.1838-3.1838 1.4254-3.1838 3.1838 1.4254 3.1838 3.1838 3.1838z" fill="#211d3d"/><path d="m81.4846 79.9223c1.7584 0 3.1838-1.4254 3.1838-3.1838s-1.4254-3.1838-3.1838-3.1838-3.1838 1.4254-3.1838 3.1838 1.4254 3.1838 3.1838 3.1838z" fill="#211d3d"/><path d="m57.2776 88.1958c1.7584 0 3.1838-1.4255 3.1838-3.1838 0-1.7584-1.4254-3.1839-3.1838-3.1839s-3.1838 1.4255-3.1838 3.1839c0 1.7583 1.4254 3.1838 3.1838 3.1838z" fill="#bd704a"/><path d="m66.1992 92.3398c3.8206 2.5471 8.5964 2.5471 12.0986 0" stroke="#211d3d" stroke-linecap="round" stroke-linejoin="round" stroke-miterlimit="10" stroke-width="2.5"/><path d="m56.3313 45.5335h18.1478c2.2287 0 4.139-1.9103 4.139-4.139h6.0492c6.6861 0 12.0986 5.4125 12.0986 12.0986 0 6.3676-4.7757 11.4618-10.825 12.0985-1.5919 4.4574-5.0941 8.278-9.5515 8.278h-7.9596c5.0941-.9552 7.3228-4.139 7.9596-7.9596h-20.0581l-12.0986 12.0986h-4.1389v-16.2376c0-9.2331 7.0044-16.2375 16.2375-16.2375z" fill="#724f3d"/><path d="m72.5707 54.1279c-12.0985 0-23.2419 1.9103-32.1566 4.7758 1.2735-7.6412 7.9595-13.6905 15.9191-13.6905h18.1478c2.2287 0 4.139-1.9103 4.139-4.139h6.0493c6.686 0 12.0985 5.4125 12.0985 12.0986 0 .9551 0 2.2286-.3184 3.1838-7.3228-1.2735-15.2823-2.2287-23.8787-2.2287z" fill="#a86c4d"/><path d="m56.3313 45.5335h18.1478c2.2287 0 4.139-1.9103 4.139-4.139h6.0492c6.6861 0 12.0986 5.4125 12.0986 12.0986 0 6.3676-4.7757 11.4618-10.825 12.0985-1.5919 4.4574-5.0941 8.278-9.5515 8.278h-7.9596c5.0941-.9552 7.3228-4.139 7.9596-7.9596h-20.0581l-12.0986 12.0986h-4.1389v-16.2376c0-9.2331 7.0044-16.2375 16.2375-16.2375z" stroke="#211d3d" stroke-linecap="round" stroke-linejoin="round" stroke-miterlimit="10" stroke-width="2.5"/></svg>